<?xml version="1.0" standalone="no"?>
<!DOCTYPE svg PUBLIC "-//W3C//DTD SVG 20010904//EN"
 "http://www.w3.org/TR/2001/REC-SVG-20010904/DTD/svg10.dtd">
<svg version="1.0" xmlns="http://www.w3.org/2000/svg"
 width="871.000000pt" height="544.000000pt" viewBox="0 0 871.000000 544.000000"
 preserveAspectRatio="xMidYMid meet">

<g transform="translate(0.000000,544.000000) scale(0.100000,-0.100000)"
fill="#000000" stroke="none">
<path d="M0 5416 c0 -48 -26 -46 555 -46 597 0 775 -9 843 -41 102 -50 117
-69 627 -814 83 -121 238 -347 345 -503 107 -155 231 -335 275 -400 66 -96 85
-117 105 -117 22 0 59 51 276 373 139 205 326 479 416 610 186 267 217 319
248 412 26 77 24 107 -18 303 -16 75 -29 138 -28 139 0 0 78 7 171 15 128 11
423 16 1200 19 l1030 5 225 -26 c382 -45 675 -131 979 -288 265 -137 440 -264
641 -466 277 -278 475 -608 603 -1006 56 -173 112 -455 128 -640 16 -191 6
-512 -21 -685 -68 -443 -242 -849 -510 -1195 -164 -211 -262 -308 -465 -461
-203 -152 -437 -283 -675 -377 -122 -48 -402 -118 -555 -138 -64 -8 -464 -13
-1397 -16 l-1308 -4 0 954 c0 1039 2 1005 -53 955 -14 -13 -95 -124 -181 -246
-131 -188 -154 -227 -146 -243 21 -39 46 -21 128 88 44 60 101 141 128 182
l49 74 3 -901 2 -902 25 -16 c22 -15 138 -16 1337 -11 1445 5 1428 5 1693 69
398 96 708 251 1076 539 427 335 768 900 884 1464 15 72 31 150 36 175 17 77
28 207 35 385 5 142 3 195 -15 320 -11 83 -23 179 -27 215 -8 86 -55 285 -105
442 -125 400 -324 727 -630 1039 -133 135 -222 207 -406 329 -256 170 -520
284 -838 364 -335 84 -252 80 -1630 80 -671 -1 -1273 -5 -1337 -10 -149 -11
-158 -18 -139 -101 31 -144 51 -272 51 -332 0 -90 -34 -159 -190 -381 -68 -96
-224 -326 -348 -510 -124 -184 -252 -372 -283 -418 l-58 -83 -38 53 c-22 29
-133 190 -248 358 -115 168 -283 413 -374 545 -90 132 -219 319 -285 415 -226
330 -288 399 -403 445 l-63 25 -670 0 c-572 0 -670 -2 -670 -14z"/>
<path d="M4417 5120 c-419 -4 -489 -7 -497 -20 -5 -8 -10 -79 -10 -158 0 -102
-4 -153 -15 -177 -16 -40 -310 -478 -958 -1428 -183 -270 -190 -278 -220 -275
-27 3 -45 25 -187 233 -86 127 -299 439 -475 695 -175 256 -384 560 -463 675
-79 116 -178 260 -220 322 -50 72 -86 115 -102 120 -14 5 -256 6 -538 3 l-512
-5 0 -2415 c0 -2270 1 -2416 17 -2428 13 -9 154 -12 648 -10 l630 3 3 755 c1
415 -2 966 -7 1225 -6 314 -5 474 1 483 26 31 48 11 140 -125 50 -76 151 -223
223 -328 72 -104 215 -314 318 -466 122 -180 196 -280 212 -287 18 -8 114 -12
306 -12 242 0 285 2 309 16 26 16 84 100 615 885 197 290 236 341 253 324 4
-4 9 -561 12 -1238 l5 -1232 230 -8 c127 -4 651 -8 1165 -10 865 -2 943 -1
1045 16 371 62 775 210 1025 375 87 58 284 213 378 297 70 63 165 182 273 344
199 295 321 615 374 976 58 388 50 636 -29 1020 -42 204 -100 376 -185 550
-91 185 -149 277 -273 432 -147 185 -328 347 -526 472 -326 205 -634 319
-1049 386 -151 25 -154 25 -790 23 -351 -2 -858 -5 -1126 -8z m1713 -1043
c357 -94 582 -244 757 -505 94 -140 160 -300 195 -472 30 -150 32 -436 5 -572
-41 -207 -113 -386 -210 -527 -81 -118 -244 -262 -399 -352 -75 -44 -287 -118
-411 -143 -110 -23 -402 -37 -682 -34 l-240 3 -3 1303 c-1 915 1 1309 9 1323
10 20 18 20 427 16 l417 -4 135 -36z"/>
<path d="M5516 3684 c-19 -19 -20 -38 -3 -52 8 -7 108 -15 243 -21 174 -8 258
-16 348 -35 327 -68 528 -262 612 -593 21 -82 24 -119 24 -263 0 -191 -13
-274 -60 -399 -108 -280 -348 -458 -670 -497 -63 -7 -199 -14 -302 -14 -173 0
-188 -1 -197 -19 -8 -14 -6 -22 8 -35 15 -14 47 -16 217 -16 304 0 420 19 581
95 154 72 281 186 365 327 49 83 72 143 106 277 23 95 26 124 26 286 0 162 -3
190 -26 277 -51 187 -164 377 -279 468 -62 49 -158 106 -219 130 -101 40 -278
71 -458 80 -98 5 -205 12 -239 15 -48 4 -65 2 -77 -11z"/>
</g>
</svg>
